<svg width="20" height="19" viewBox="0 0 20 19"  xmlns="http://www.w3.org/2000/svg">
<path d="M19.1489 4.22705H15.1411C14.7312 4.22705 14.3989 4.54184 14.3989 4.93018V16.9536H13.1372V1.06299C13.1372 0.674652 12.8049 0.359863 12.395 0.359863H8.38721C7.9773 0.359863 7.64502 0.674652 7.64502 1.06299V16.9536H6.3833V9.85205C6.3833 9.46371 6.05102 9.14893 5.64111 9.14893H1.6333C1.22339 9.14893 0.891113 9.46371 0.891113 9.85205V17.6567C0.891113 18.0451 1.22339 18.3599 1.6333 18.3599H19.1489C19.5588 18.3599 19.8911 18.0451 19.8911 17.6567V4.93018C19.8911 4.54184 19.5588 4.22705 19.1489 4.22705ZM4.89893 16.9536H2.37549V10.5552H4.89893V16.9536ZM9.12939 1.76611H11.6528V16.9536H9.12939V1.76611ZM18.4067 16.9536H15.8833V5.6333H18.4067V16.9536Z" fill="white"/>
</svg>
