<svg width="47" height="6" viewBox="0 0 47 6" fill="none" xmlns="http://www.w3.org/2000/svg">
<path d="M1.70164 2.86083C1.84164 2.68583 2.03764 2.57383 2.30364 2.57383C2.79364 2.57383 3.09464 3.00783 3.09464 3.46283C3.09464 3.91783 2.79364 4.29583 2.42264 4.35183V5.16383C3.37464 5.11483 4.06064 4.33083 4.06064 3.44883C4.06064 2.44783 3.37464 1.79683 2.49264 1.79683C2.13564 1.79683 1.87664 1.88083 1.70164 1.98583V2.86083ZM0.49064 2.92383C0.49064 4.39383 1.19764 5.12883 2.21964 5.16383V4.35183C1.85564 4.30983 1.50564 4.07883 1.50564 3.15483V2.25183C1.50564 0.998834 3.04564 1.25083 3.71764 0.879834L3.36064 0.123834C2.94064 0.361834 1.95364 0.382834 1.25364 0.963834C0.81264 1.32783 0.49064 1.92983 0.49064 2.92383ZM5.56083 5.07983V1.46783H4.62283V5.07983H5.56083ZM6.72983 1.46783V5.07983H7.66783V1.46783H6.72983ZM6.51983 1.83883L5.77083 3.16883V4.70883L6.51983 3.37883V1.83883ZM9.70592 1.38383C8.74692 1.42583 8.41792 2.06983 8.30592 2.63683L9.19492 2.72083C9.24392 2.40583 9.34892 2.14683 9.70592 2.09783V1.38383ZM9.91592 5.16383C10.7139 5.12883 11.3649 4.69483 11.3649 3.98083C11.3649 3.55383 11.0569 3.28083 10.8049 3.15483C11.0429 3.02883 11.2809 2.81183 11.2809 2.43383C11.2809 1.85983 10.7349 1.41883 9.91592 1.38383V2.09783C10.1259 2.12583 10.3359 2.25883 10.3359 2.48283C10.3359 2.78383 10.0349 2.86083 9.83192 2.86083H9.38392V3.53283H9.81792C9.91592 3.53283 10.4059 3.55383 10.4059 3.98083C10.4059 4.27483 10.1399 4.40083 9.91592 4.42883V5.16383ZM9.70592 4.42883C9.28592 4.39383 9.19492 4.08583 9.13192 3.72883L8.22892 3.84783C8.37592 4.70883 8.79592 5.12883 9.70592 5.16383V4.42883ZM13.3376 2.79783H12.8616V1.46783H11.9236V5.07983H12.8616V3.58183H13.3376V2.79783ZM13.5546 3.58183H14.0306V5.07983H14.9686V1.46783H14.0306V2.79783H13.5546V3.58183ZM17.3707 5.16383C18.2247 5.12883 18.6587 4.68083 18.9037 4.27483L18.1337 3.81983C18.0007 4.09283 17.8397 4.33083 17.3707 4.35883V5.16383ZM16.7197 2.81883C16.6847 2.93783 16.6707 3.07783 16.6707 3.22483C16.6707 3.32283 16.6707 3.41383 16.6847 3.49783H18.9177C18.9177 3.04983 18.8337 2.53883 18.5957 2.13983C18.3507 1.73383 17.9447 1.43283 17.3707 1.39783V2.20283C17.7557 2.27983 17.8677 2.61583 17.8957 2.81883H16.7197ZM16.4607 3.22483C16.4607 2.71383 16.6287 2.22383 17.1607 2.20283V1.39783C16.4327 1.43983 15.5297 1.90883 15.5297 3.34383C15.5297 4.65283 16.5377 5.11483 17.1607 5.16383V4.35883C16.5937 4.24683 16.4607 3.70783 16.4607 3.22483ZM21.2483 2.20283C21.5983 2.25183 21.7943 2.49683 21.8993 2.79083L22.6413 2.38483C22.3893 1.86683 21.9483 1.43283 21.2483 1.39783V2.20283ZM21.2483 5.16383C21.8573 5.12883 22.3473 4.79983 22.7043 4.19083L21.9483 3.74983C21.8153 4.05083 21.6263 4.31683 21.2483 4.35883V5.16383ZM21.0383 4.35883C20.4993 4.30283 20.2893 3.83383 20.2893 3.28083C20.2893 2.69283 20.5063 2.25183 21.0383 2.20283V1.39783C19.9323 1.44683 19.3373 2.28683 19.3373 3.28083C19.3373 4.40083 19.9813 5.10783 21.0383 5.16383V4.35883ZM26.384 4.35883C25.838 4.30283 25.635 3.83383 25.635 3.28083C25.635 2.69283 25.852 2.25183 26.384 2.20283V1.39783C25.278 1.44683 24.683 2.28683 24.683 3.28083C24.683 4.33783 25.306 5.10783 26.384 5.16383V4.35883ZM26.594 5.16383C27.476 5.10083 28.26 4.47783 28.26 3.28083C28.26 2.24483 27.63 1.44683 26.594 1.39783V2.20283C27.028 2.25183 27.308 2.62283 27.308 3.28083C27.308 3.86183 27.098 4.30283 26.594 4.35883V5.16383ZM29.893 2.86083C30.033 2.68583 30.229 2.57383 30.495 2.57383C30.985 2.57383 31.286 3.00783 31.286 3.46283C31.286 3.91783 30.985 4.29583 30.614 4.35183V5.16383C31.566 5.11483 32.252 4.33083 32.252 3.44883C32.252 2.44783 31.566 1.79683 30.684 1.79683C30.327 1.79683 30.068 1.88083 29.893 1.98583V2.86083ZM28.682 2.92383C28.682 4.39383 29.389 5.12883 30.411 5.16383V4.35183C30.047 4.30983 29.697 4.07883 29.697 3.15483V2.25183C29.697 0.998834 31.237 1.25083 31.909 0.879834L31.552 0.123834C31.132 0.361834 30.145 0.382834 29.445 0.963834C29.004 1.32783 28.682 1.92983 28.682 2.92383ZM34.2525 1.46783H33.0205V2.83283C33.0205 3.84783 33.0065 4.23283 32.4675 4.30283V5.07983C33.6785 5.07983 33.9585 4.49183 33.9585 2.90983V2.25183H34.2525V1.46783ZM34.4625 2.25183H34.7775V5.07983H35.7155V1.46783H34.4625V2.25183ZM38.4328 4.67383C38.4328 4.86283 38.4678 5.00983 38.4818 5.07983H39.4618C39.4338 5.02383 39.3358 4.83483 39.3358 4.56183V2.61583C39.3358 1.86683 39.0628 1.39783 37.8378 1.39783C37.1308 1.39783 36.4728 1.64283 36.4378 2.64383H37.2988C37.3198 2.31483 37.4738 2.13983 37.8658 2.13983C38.3278 2.13983 38.4328 2.37083 38.4328 2.52483V4.67383ZM38.2228 4.19783C38.0968 4.31683 37.9218 4.39383 37.7048 4.39383C37.3618 4.39383 37.2218 4.20483 37.2218 3.99483C37.2218 3.75683 37.3618 3.62383 37.7118 3.56783L38.2228 3.49083V2.80483L37.7118 2.86783C37.0188 2.95183 36.2768 3.12683 36.2768 3.95983C36.2768 4.77883 36.8158 5.11483 37.5158 5.11483C37.8238 5.11483 38.0268 5.06583 38.2228 4.95383V4.19783ZM40.9573 1.46783H40.0193V5.07983H40.9573V1.46783ZM41.1673 2.80483V3.49783L42.3503 5.07983H43.4213L41.9303 3.11983L43.3093 1.46783H42.2383L41.1673 2.80483ZM45.0871 4.35883C44.5411 4.30283 44.3381 3.83383 44.3381 3.28083C44.3381 2.69283 44.5551 2.25183 45.0871 2.20283V1.39783C43.9811 1.44683 43.3861 2.28683 43.3861 3.28083C43.3861 4.33783 44.0091 5.10783 45.0871 5.16383V4.35883ZM45.2971 5.16383C46.1791 5.10083 46.9631 4.47783 46.9631 3.28083C46.9631 2.24483 46.3331 1.44683 45.2971 1.39783V2.20283C45.7311 2.25183 46.0111 2.62283 46.0111 3.28083C46.0111 3.86183 45.8011 4.30283 45.2971 4.35883V5.16383Z" fill="#E8E8E8"/>
</svg>
